<svg width="570" height="193" viewBox="0 0 570 193" fill="none" xmlns="http://www.w3.org/2000/svg">
<g clip-path="url(#clip0)">
<path d="M147 72.6253V194.484L-0.340547 195C0.0293283 189.673 -24.2226 119.414 6.86289 79.277C50.9762 22.2992 88.6738 68.3772 138.438 72.3777C141.251 72.6003 144.089 72.698 147 72.6253Z" fill="#E2EBFD"/>
<path d="M555.05 191.815C554.833 193.502 537.203 191.544 536.958 193.203L426.96 193.583H181.161V59.3878C184.267 59.3072 187.401 59.0605 190.616 58.625C201.406 57.1548 212.715 53.4566 224.702 46.4932C348.788 -25.3536 449.82 -5.84802 506.549 50.2468C513.523 57.1573 519.845 64.6368 525.458 72.5543C549.573 106.641 560.471 149.106 555.05 191.815Z" fill="white"/>
<path opacity="0.6" d="M556.412 170.57C556.439 177.942 556.003 185.343 555.05 192.77C554.833 194.456 537.203 192.498 536.958 194.157L426.96 194.537H181.161V194.429L426.96 193.585L536.958 193.205C537.203 191.546 554.833 193.505 555.05 191.818C555.948 184.716 556.412 177.614 556.412 170.57Z" fill="#E2EBFD"/>
<path d="M443 101.199V194H147V113.246H169.688V91.2079H192.378V120.981H210.747V114.33H242.746V125.577H256.673V100.318H293.949V57H323.425V80.1035H330.148V60.7493H359.622V90.5614H386.338V72.268H414.909V90.5614H420.237V101.199H443Z" fill="#DDE8FD"/>
<path d="M745 101.199V194H458V113.246H479.998V91.2079H501.999V120.981H519.809V114.33H550.835V125.577H564.339V100.318H600.481V57H629.061V80.1035H635.579V60.7493H664.157V90.5614H690.06V72.268H717.763V90.5614H722.929V101.199H745Z" fill="#DDE8FD"/>
<path d="M59.9658 108.968H35.8461C34.2804 108.968 33 107.689 33 106.126V82.9314C33 81.3682 34.2804 80.0898 35.8461 80.0898H59.9658C61.5315 80.0898 62.8119 81.3682 62.8119 82.9314V106.124C62.8119 107.689 61.5315 108.968 59.9658 108.968Z" fill="#93B3F4"/>
<path d="M58.9205 107.717H36.8891C35.4581 107.717 34.2896 106.548 34.2896 105.121V83.9363C34.2896 82.5075 35.4604 81.3408 36.8891 81.3408H58.9205C60.3515 81.3408 61.5201 82.5098 61.5201 83.9363V105.121C61.5201 106.55 60.3515 107.717 58.9205 107.717Z" fill="#E2EBFD"/>
<path d="M47.2876 83.9771C47.2876 83.6376 47.5638 83.3596 47.9061 83.3596C48.2462 83.3596 48.5246 83.6353 48.5246 83.9771C48.5246 84.3167 48.2485 84.5947 47.9061 84.5947C47.5638 84.5924 47.2876 84.3167 47.2876 83.9771Z" fill="#93B3F4"/>
<path d="M52.2722 84.8477C52.4388 84.5492 52.8131 84.4421 53.1121 84.6084C53.4111 84.7748 53.5184 85.1485 53.3518 85.447C53.1852 85.7455 52.8109 85.8526 52.5119 85.6862C52.2129 85.5222 52.1056 85.1462 52.2722 84.8477Z" fill="#93B3F4"/>
<path d="M56.5402 88.2338C56.8278 88.0492 57.2089 88.1313 57.3938 88.4184C57.5786 88.7055 57.4965 89.086 57.2089 89.2706C56.9213 89.4552 56.5402 89.3732 56.3553 89.086C56.1705 88.8012 56.2549 88.4184 56.5402 88.2338Z" fill="#93B3F4"/>
<path d="M58.656 93.4771C58.996 93.4771 59.2745 93.7528 59.2745 94.0946C59.2745 94.4341 58.9983 94.7121 58.656 94.7121C58.3159 94.7121 58.0375 94.4364 58.0375 94.0946C58.0375 93.7528 58.3136 93.4771 58.656 93.4771Z" fill="#93B3F4"/>
<path d="M57.5764 99.5591C57.8184 99.8006 57.8184 100.19 57.5764 100.432C57.3345 100.673 56.9442 100.673 56.7023 100.432C56.4604 100.19 56.4604 99.8006 56.7023 99.5591C56.9442 99.3175 57.3345 99.3175 57.5764 99.5591Z" fill="#93B3F4"/>
<path d="M53.6964 103.442C53.9384 103.683 53.9384 104.073 53.6964 104.315C53.4545 104.556 53.0642 104.556 52.8223 104.315C52.5804 104.073 52.5804 103.683 52.8223 103.442C53.0642 103.2 53.4568 103.2 53.6964 103.442Z" fill="#93B3F4"/>
<path d="M47.2876 105.443C47.2876 105.101 47.5638 104.825 47.9061 104.825C48.2462 104.825 48.5246 105.101 48.5246 105.443C48.5246 105.782 48.2485 106.06 47.9061 106.06C47.5638 106.058 47.2876 105.782 47.2876 105.443Z" fill="#93B3F4"/>
<path d="M43.5194 84.8477C43.3528 84.5492 42.9785 84.4421 42.6795 84.6084C42.3805 84.7748 42.2732 85.1485 42.4398 85.447C42.6064 85.7455 42.9808 85.8526 43.2797 85.6862C43.5787 85.5222 43.686 85.1462 43.5194 84.8477Z" fill="#93B3F4"/>
<path d="M39.2515 88.2336C38.9639 88.049 38.5828 88.131 38.3979 88.4181C38.213 88.7053 38.2952 89.0858 38.5828 89.2704C38.8704 89.4549 39.2515 89.3729 39.4364 89.0858C39.619 88.801 39.5368 88.4181 39.2515 88.2336Z" fill="#93B3F4"/>
<path d="M37.1357 93.4771C36.7957 93.4771 36.5172 93.7528 36.5172 94.0946C36.5172 94.4341 36.7934 94.7121 37.1357 94.7121C37.4758 94.7121 37.7542 94.4364 37.7542 94.0946C37.7542 93.7528 37.4758 93.4771 37.1357 93.4771Z" fill="#93B3F4"/>
<path d="M38.2153 99.5591C37.9733 99.8006 37.9733 100.19 38.2153 100.432C38.4572 100.673 38.8475 100.673 39.0894 100.432C39.3313 100.19 39.3313 99.8006 39.0894 99.5591C38.8475 99.3175 38.4572 99.3175 38.2153 99.5591Z" fill="#93B3F4"/>
<path d="M42.0929 103.442C41.851 103.683 41.851 104.073 42.0929 104.315C42.3349 104.556 42.7252 104.556 42.9671 104.315C43.209 104.073 43.209 103.683 42.9671 103.442C42.7252 103.2 42.3349 103.2 42.0929 103.442Z" fill="#93B3F4"/>
<path d="M47.7393 94.0924C47.7393 93.7529 48.0154 93.4749 48.3578 93.4749C48.6978 93.4749 48.9763 93.7506 48.9763 94.0924C48.9763 94.4319 48.7001 94.7099 48.3578 94.7099C48.0154 94.7099 47.7393 94.4342 47.7393 94.0924Z" fill="#93B3F4"/>
<path d="M48.44 86.3904H48.2711V94.0924H48.44V86.3904Z" fill="#93B3F4"/>
<path d="M52.2086 90.6703L48.12 93.8767L48.433 94.2745L52.5216 91.0681L52.2086 90.6703Z" fill="#93B3F4"/>
<path d="M459 84.1775V193H441V64C447.652 70.2545 453.666 77.0123 459 84.1775Z" fill="#D3E0FC"/>
<path d="M254.152 159.254H252L254.636 192.562H259.871L254.152 159.254Z" fill="#3A49CD"/>
<path d="M296.957 149.534L296.496 149.627C294.438 150.042 292.415 148.702 292 146.648L291.511 144.236C291.096 142.182 292.438 140.161 294.496 139.747L294.957 139.654C297.015 139.24 299.038 140.579 299.453 142.634L299.942 145.045C300.359 147.1 299.015 149.12 296.957 149.534Z" fill="#060632"/>
<path d="M252 159.254C252 159.254 263.755 153.745 279.86 157.41L254.152 159.254H252Z" fill="#3A49CD"/>
<path d="M259.871 192.88L254.152 159.256C254.152 159.256 272.162 153.216 286.136 159.256L294.449 192.67L259.871 192.88Z" fill="#BED2FA"/>
<path d="M384.396 182.468C384.076 186.116 382.013 187.243 381.106 187.146C380.198 187.05 374.892 185.026 374.777 185.769C374.661 186.512 377.856 188.936 380.093 189.051C380.093 189.051 375.87 193.7 373.063 192.359C370.256 191.017 370.018 188.89 368.268 188.091C366.518 187.293 365.026 187.296 365.747 188.109C366.47 188.922 369.637 189.713 370.637 191.48C370.873 191.896 371.104 192.282 371.279 192.621L365.369 192.609C363.496 191.68 361.916 190.397 361.8 189.015C361.791 188.909 361.782 188.809 361.775 188.713C361.592 186.587 361.592 186.587 361.592 186.587C361.592 186.587 358.558 183.054 360.136 180.121C360.397 179.633 360.787 179.163 361.338 178.727C361.338 178.727 364.167 177.018 366.473 177.157C366.473 177.157 364.686 180.149 364.183 181.927C364.006 182.554 363.988 183.029 364.264 183.17C364.564 183.325 364.954 182.873 365.359 182.15C366.37 180.337 367.465 176.812 367.465 176.812C367.465 176.812 369.164 176.648 371.1 176.623C371.968 176.612 372.884 176.628 373.714 176.701C374.63 176.782 375.443 176.93 375.971 177.184C375.971 177.184 375.854 177.278 375.661 177.441C375.373 177.682 374.91 178.073 374.396 178.529C372.87 179.876 370.887 181.777 371.628 181.948C372.228 182.087 374.112 180.969 375.788 179.86C377.348 178.829 378.729 177.804 378.729 177.804C378.729 177.804 384.716 178.82 384.396 182.468Z" fill="#6D89CF"/>
<path d="M381.455 182.566C381.455 182.566 365.185 181.941 361.593 186.586C361.593 186.586 360.798 188.961 358.352 191.125L357.971 192.161C357.971 192.161 360.791 189.194 361.8 189.013C361.798 189.015 360.222 183.259 381.455 182.566Z" fill="#6D89CF"/>
<path d="M359.036 191.1C358.896 191.251 358.687 191.46 358.388 191.736L358.381 191.743C358.277 191.839 358.177 191.943 358.078 192.052C357.928 192.218 357.783 192.402 357.645 192.595L356.885 192.593C357.669 191.632 358.35 191.126 358.35 191.126C358.35 191.126 358.35 191.126 358.352 191.125C358.413 191.089 359.814 190.242 359.036 191.1Z" fill="#6D89CF"/>
<path d="M343.831 180.542C343.831 180.542 350.396 176.873 347.333 171.891C347.333 171.891 344.881 168.832 342.257 168.046C342.257 168.046 343.657 175.474 342.257 175.649C340.856 175.824 341.294 167.26 341.294 167.26C341.294 167.26 334.38 163.94 331.666 164.202C331.666 164.202 335.955 171.455 334.554 171.28C333.153 171.105 328.34 163.765 328.34 163.765C328.34 163.765 321.251 162.453 320.113 166.648C318.975 170.842 320.813 172.939 321.863 173.202C322.913 173.465 329.652 173.377 329.478 174.251C329.303 175.124 324.753 176.523 322.214 175.737C322.214 175.737 325.014 182.639 328.691 182.291C332.366 181.941 333.504 179.67 335.78 179.495C338.055 179.32 339.718 179.933 338.58 180.544C337.442 181.155 333.591 180.744 331.754 182.303C329.916 183.863 328.428 184.824 331.842 185.524C335.255 186.223 341.382 185.787 342.605 183.164C343.831 180.542 343.831 180.542 343.831 180.542Z" fill="#6D89CF"/>
<path d="M323.352 167.959C323.352 167.959 341.731 173.9 343.831 180.542C343.831 180.542 343.743 183.513 345.581 186.921V188.232C345.581 188.232 343.656 183.775 342.605 183.164C342.605 183.163 346.719 177.396 323.352 167.959Z" fill="#6D89CF"/>
<path d="M347.284 192.58L346.234 192.578C346.2 191.062 346.025 189.359 345.508 188.063C345.443 187.9 345.373 187.745 345.297 187.596C345.297 187.594 345.295 187.593 345.295 187.591C345.076 187.164 344.93 186.851 344.837 186.623C344.3 185.308 345.585 186.923 345.585 186.923C345.585 186.923 347.122 189.256 347.284 192.58Z" fill="#6D89CF"/>
<path d="M354.275 175.48C354.275 175.48 345.622 170.642 349.66 164.077C349.66 164.077 352.89 160.045 356.352 159.009C356.352 159.009 354.505 168.8 356.352 169.031C358.198 169.261 357.62 157.973 357.62 157.973C357.62 157.973 366.735 153.597 370.311 153.942C370.311 153.942 364.659 163.502 366.504 163.272C368.35 163.041 374.695 153.366 374.695 153.366C374.695 153.366 384.04 151.639 385.539 157.168C387.039 162.696 384.616 165.46 383.233 165.806C381.848 166.151 372.965 166.037 373.195 167.189C373.426 168.341 379.425 170.183 382.771 169.147C382.771 169.147 379.08 178.247 374.235 177.786C369.39 177.325 367.89 174.331 364.89 174.101C361.891 173.87 359.698 174.676 361.199 175.483C362.698 176.289 367.774 175.748 370.197 177.804C372.619 179.86 374.58 181.126 370.082 182.048C365.582 182.97 357.508 182.393 355.892 178.938C354.275 175.48 354.275 175.48 354.275 175.48Z" fill="#93B3F4"/>
<path d="M381.268 158.893C381.268 158.893 357.042 166.726 354.273 175.48C354.273 175.48 354.387 179.395 351.965 183.888V185.615C351.965 185.615 354.503 179.742 355.887 178.934C355.888 178.936 350.467 171.333 381.268 158.893Z" fill="#6D89CF"/>
<path d="M352.952 183.491C352.952 183.493 352.951 183.493 352.951 183.495C352.827 183.795 352.634 184.211 352.346 184.774C352.346 184.776 352.344 184.776 352.344 184.778C352.244 184.972 352.153 185.178 352.067 185.392C352.067 185.392 352.067 185.392 352.067 185.394C351.237 187.47 351.074 190.333 351.104 192.589L349.714 192.586C349.548 187.559 351.968 183.89 351.968 183.89C352.004 183.841 353.65 181.78 352.952 183.491Z" fill="#6D89CF"/>
<path d="M311.198 192.668H278.287C277.8 191.491 277.375 190.233 277.001 188.922C276.063 185.646 275.455 182.035 275.068 178.498C275.063 178.454 275.058 178.407 275.054 178.363C274.39 172.228 274.387 166.328 274.476 162.784C274.528 160.733 274.608 159.47 274.614 159.408V159.406C274.684 159.375 274.755 159.347 274.825 159.32C276.569 158.589 278.244 157.959 279.847 157.414C279.856 157.412 279.862 157.41 279.862 157.41C281.211 156.951 282.508 156.555 283.757 156.214C285.952 155.612 287.995 155.179 289.885 154.879C292.112 154.527 294.127 154.359 295.934 154.322C296.016 154.318 296.095 154.318 296.177 154.317C296.653 154.308 297.115 154.309 297.562 154.32C302.067 154.417 305.064 155.312 306.582 155.908C306.793 155.99 306.973 156.069 307.124 156.139C307.143 156.148 307.163 156.155 307.183 156.164C307.354 156.24 307.487 156.305 307.58 156.351C307.591 156.357 307.605 156.364 307.616 156.371C307.66 156.394 307.703 156.419 307.745 156.444L310.117 181.344L311.198 192.668Z" fill="#0B0754"/>
<path d="M343.992 187.286C340.695 188.815 321.083 190.097 319.199 189.556C318.233 189.277 314.189 185.722 310.122 181.348C310.119 181.346 310.119 181.346 310.119 181.346C306.27 177.209 302.388 172.339 301.08 168.834C298.387 161.632 300.702 155.238 300.702 155.238C300.702 155.238 305.707 155.217 307.746 156.448C309.786 157.68 321.45 179.127 323.01 179.694C324.57 180.263 343.046 181.317 345.16 182.319C345.159 182.316 347.286 185.756 343.992 187.286Z" fill="#0B0754"/>
<path d="M296.172 155.188L296.167 156.401C296.167 156.401 296.503 160.192 291.828 160.753C287.153 161.315 283.606 159.286 283.728 156.36C284.147 154.093 284.607 152.537 284.633 150.662C284.644 149.965 284.596 149.225 284.463 148.391L293.526 148.197L296.195 148.627L296.172 155.188Z" fill="#FDA6A4"/>
<path d="M296.197 148.629L296.172 155.188C295.21 155.637 294.125 155.912 292.907 155.914C288.742 155.921 284.596 149.227 284.465 148.393L296.197 148.629Z" fill="#FC9290"/>
<path d="M296.73 151.816C296.73 151.816 285.127 154.174 283.767 146.937C282.407 139.701 279.994 135.131 287.344 133.32C294.694 131.508 296.657 133.998 297.7 136.305C298.743 138.609 299.713 151.015 296.73 151.816Z" fill="#FDA6A4"/>
<path d="M299.949 130.921C299.949 130.921 296.712 130.678 292.892 129.025C289.792 127.686 285.884 129.172 284.617 129.842C284.651 129.638 284.732 129.359 284.925 129.079C284.925 129.079 284.356 129.483 284.272 130.047C284.213 130.09 284.188 130.12 284.202 130.129C284.202 130.129 283.556 130.013 283.141 130.199C283.141 130.199 283.431 130.158 283.535 130.344C283.545 130.363 283.562 130.379 283.581 130.395C278.752 132.734 278.317 140.362 279.876 142.125C281.751 144.245 284.002 149.024 284.002 149.024C284.002 149.024 284.818 147.893 284.476 146.024C284.132 144.156 285.75 144.154 287.789 143.302C289.829 142.45 288.124 140.074 289.908 138.627C291.692 137.18 298.242 138.02 298.156 136.916C300.586 136.03 299.949 131.171 299.949 130.921Z" fill="#9E332E"/>
<path d="M278.287 192.668C277.8 191.491 277.374 190.233 277 188.922C276.063 185.646 275.454 182.035 275.068 178.498C275.063 178.454 275.057 178.407 275.054 178.363C275.079 178.373 275.12 178.441 275.147 178.409C276.428 176.855 279.926 175.154 284.163 181.346C285.007 182.58 288.714 191.223 289.305 192.668H278.287Z" fill="#030231"/>
<path d="M281.726 192.668C281.631 192.109 281.737 191.407 282.173 190.53C282.173 190.53 282.717 190.178 283.436 189.769C284.51 189.163 285.981 188.431 286.646 188.548C286.766 188.57 286.927 188.606 287.119 188.652C288.699 189.031 292.379 190.163 292.935 190.826C293.393 191.371 294.018 192.066 294.449 192.67H281.726V192.668Z" fill="#FDA6A4"/>
<path d="M284.161 192.668H253.152C253.07 192.27 253.066 191.903 253.175 191.627C254.1 189.294 255.906 185.455 257.985 181.334C259.515 178.302 261.189 175.119 262.773 172.273C264.97 168.32 266.983 165.015 268.165 163.659C269.098 162.593 270.275 161.698 271.502 160.96C272.544 160.333 273.621 159.819 274.614 159.408V159.406C274.683 159.376 274.755 159.347 274.825 159.32C276.984 158.447 278.695 158.064 278.695 158.064C278.695 158.064 278.718 159.043 278.72 160.546C278.727 164.91 278.559 173.704 277.163 175.848C276.775 176.446 276.05 177.35 275.145 178.409C275.118 178.44 275.093 178.468 275.066 178.499C274.576 179.072 274.034 179.688 273.463 180.324C270.227 183.943 266.127 188.195 265.628 188.711C265.594 188.747 265.576 188.765 265.576 188.765H265.635L274.331 188.886L276.999 188.922L282.529 188.999C282.91 189.163 283.209 189.433 283.436 189.769C283.971 190.549 284.136 191.687 284.161 192.668Z" fill="#0B0754"/>
<path d="M343.992 187.286C340.694 188.815 321.083 190.097 319.199 189.556C318.233 189.277 314.189 185.723 310.122 181.348C310.323 181.375 312.183 178.279 320.666 185.687C320.666 185.687 322.888 186.675 328.932 186.121C334.976 185.567 342.74 185.363 343.992 187.286Z" fill="#030231"/>
<path d="M324.724 192.609H302.304C302.304 191.623 303.103 190.824 304.091 190.824H324.724V192.609Z" fill="#A83F3F"/>
<path d="M324.66 168.23H359.324L351.01 192.609H316.122L324.66 168.23Z" fill="#A83F3F"/>
<path d="M359.834 168.229L351.52 192.609H316.632L325.172 168.229H359.834Z" fill="#B05050"/>
<path d="M341.146 180.194C340.931 181.125 339.999 181.88 339.067 181.88C338.135 181.88 337.551 181.125 337.768 180.194C337.983 179.263 338.915 178.508 339.847 178.508C340.779 178.508 341.361 179.263 341.146 180.194Z" fill="#ED6966"/>
<path d="M359.834 168.229L351.52 192.609H335.29L354.729 168.229H359.834Z" fill="#A83F3F"/>
<path d="M287.138 149.534L286.677 149.627C284.619 150.042 282.595 148.702 282.18 146.648L281.692 144.236C281.277 142.182 282.619 140.161 284.676 139.747L285.138 139.654C287.195 139.24 289.219 140.579 289.634 142.634L290.123 145.045C290.539 147.1 289.196 149.12 287.138 149.534Z" fill="#060632"/>
<path d="M283.544 140.851C283.234 140.294 282.78 135.805 284.016 132.232C284.614 130.505 285.58 129.52 286.791 128.856C287.229 128.615 287.72 128.488 288.221 128.488L289.439 128.507C285.43 130.203 284.499 139.27 284.812 140.237C284.803 140.206 284.791 140.185 284.782 140.169L283.544 140.851Z" fill="#060632"/>
<path d="M295.245 150.29C288.505 150.29 285.17 144.974 285.138 144.919L285.741 144.551L285.44 144.735L285.741 144.551C285.771 144.601 288.913 149.584 295.247 149.584C295.29 149.584 295.331 149.584 295.374 149.584L295.381 150.29C295.336 150.29 295.29 150.29 295.245 150.29Z" fill="#060632"/>
<path d="M286.052 147.175L285.821 147.221C284.796 147.428 283.789 146.76 283.581 145.737L283.338 144.535C283.131 143.511 283.8 142.503 284.825 142.298L285.056 142.252C286.081 142.044 287.09 142.712 287.296 143.736L287.539 144.938C287.747 145.96 287.078 146.968 286.052 147.175Z" fill="#0B0754"/>
<path d="M296.082 150.524H295.447C295.123 150.524 294.859 150.26 294.859 149.936C294.859 149.613 295.123 149.349 295.447 149.349H296.082C296.406 149.349 296.671 149.613 296.671 149.936C296.671 150.26 296.406 150.524 296.082 150.524Z" fill="#060632"/>
<path d="M106.964 139.995C106.964 139.995 101.31 142.882 105.431 149.082C105.431 149.082 100.573 149.643 99.3511 148.248C99.3511 148.248 99.5353 148.859 99.75 149.156C99.75 149.156 95.0444 148.539 93.3572 146.758C91.67 144.977 96.9285 121.289 109.464 126.137C109.464 126.137 120.609 127.151 117.445 139.693C114.282 152.235 118.438 152.932 118.438 152.932C118.438 152.932 117.188 153.307 116.629 153.214C116.629 153.214 115.865 152.768 115.781 152.291C115.781 152.291 115.824 153.025 115.994 153.284C115.994 153.284 111.437 152.957 109.482 150.89C107.528 148.825 105.885 142.51 106.964 139.995Z" fill="#9E332E"/>
<path d="M115.035 146.192L114.583 146.255C112.566 146.533 110.689 145.115 110.408 143.104L110.081 140.742C109.802 138.729 111.222 136.855 113.237 136.575L113.69 136.512C115.706 136.233 117.583 137.652 117.864 139.663L118.191 142.025C118.472 144.038 117.052 145.914 115.035 146.192Z" fill="#93B3F4"/>
<path d="M116.327 165.129C114.64 166.43 113.572 171.124 110.852 171.898C100.655 174.804 95.1804 162.714 93.3912 156.812C94.7564 155.937 96.0715 155.692 96.8319 155.562C97.5726 155.437 98.3545 155.338 99.0022 155.272C100.115 154.327 101.657 150.613 101.75 144.963L102.242 145.069L110.489 146.876C110.489 146.876 110.249 149.475 110.19 151.925C110.147 153.841 110.085 154.299 110.233 154.527C110.875 154.633 111.63 156.271 111.63 156.271C111.63 156.271 111.63 156.273 111.636 156.278C111.754 156.453 114.311 160.206 116.327 165.129Z" fill="#FDA6A4"/>
<path d="M110.491 146.88C110.491 146.88 110.249 149.477 110.192 151.928C105.561 151.703 103.2 147.432 102.244 145.072L110.491 146.88Z" fill="#FC9290"/>
<path d="M152.431 189.577C152.431 189.577 147.583 189.756 142.317 189.774C141.694 189.777 141.063 189.777 140.437 189.774C136.148 189.756 131.933 189.606 130.14 189.143C128.388 188.693 121.648 184.132 116.255 178.607C116.254 178.605 116.254 178.604 116.254 178.604C115.835 179.599 115.52 180.36 115.511 180.42C115.352 181.66 115.087 182.903 114.767 184.097C113.545 188.648 111.507 192.471 111.435 192.603L108.548 192.598L86 192.566C86 192.566 90.2583 186.015 89.115 169.238C89.0864 168.813 93.0405 155.276 93.0405 155.276C93.0405 155.276 96.1126 154.74 99.6642 154.454C99.9988 154.759 100.689 163.664 105.13 164.181C105.853 164.265 110.487 171.333 110.487 171.333L111.892 164.113L110.231 154.532C112.362 155.156 113.531 155.379 115.302 156.087C116.508 156.569 117.506 157.457 118.129 158.595C121.233 164.257 131.305 182.521 132.333 182.946C133.296 183.345 136.924 184.068 140.762 184.768H140.766C145.903 185.704 151.417 186.594 151.417 186.594L152.431 189.577Z" fill="#BED2FA"/>
<path d="M113.046 192.603L111.432 192.609C111.432 192.609 111.435 192.603 111.437 192.602L113.046 192.603Z" fill="#BED2FA"/>
<path d="M111.865 149.354C111.865 149.354 100.9 149.14 101.138 142.325C101.378 135.51 100.124 130.892 107.134 130.74C114.144 130.588 115.413 133.237 115.887 135.531C116.361 137.825 114.722 149.234 111.865 149.354Z" fill="#FDA6A4"/>
<path d="M142.315 189.772C141.693 189.776 141.061 189.776 140.435 189.772C136.146 189.754 131.931 189.604 130.138 189.142C128.386 188.691 121.646 184.131 116.254 178.606C116.252 178.604 116.252 178.602 116.252 178.602C116.252 178.602 117.39 174.254 117.88 173.525C118.37 172.796 120.306 179.87 124.826 182.75C129.347 185.628 136.422 187.645 139.857 186.83C142.17 186.282 142.407 188.357 142.315 189.772Z" fill="#93B3F4"/>
<path d="M109.711 145.562C109.711 145.562 109.78 146.378 111.579 146.507C111.579 146.507 113.089 146.616 113.151 145.738C113.151 145.737 111.777 144.913 109.711 145.562Z" fill="white"/>
<path d="M110.305 148.318C104.075 146.353 102.547 140.465 102.532 140.406L103.196 140.242L102.863 140.324L103.196 140.242C103.21 140.297 104.656 145.82 110.512 147.668C110.551 147.68 110.591 147.693 110.63 147.703L110.432 148.357C110.387 148.343 110.346 148.33 110.305 148.318Z" fill="#060632"/>
<path d="M111.01 148.779L110.423 148.593C110.124 148.498 109.956 148.177 110.051 147.878C110.145 147.58 110.467 147.412 110.766 147.507L111.353 147.693C111.652 147.787 111.82 148.109 111.725 148.407C111.63 148.706 111.308 148.872 111.01 148.779Z" fill="#93B3F4"/>
<path d="M112.487 129.836C112.487 129.836 109.68 138.139 105.468 139.547C101.257 140.954 99.861 139.288 99.861 139.288C99.861 139.288 102.963 136.442 103.319 131.837C103.319 131.837 110.124 126.442 112.487 129.836Z" fill="#9E332E"/>
<path d="M107.245 132.28C107.245 132.28 112.962 131.96 114.67 133.584C115.903 134.756 115.874 135.369 115.969 136.93C115.969 136.93 118.469 133.08 115.898 130.385C113.169 127.528 107.245 132.28 107.245 132.28Z" fill="#9E332E"/>
<path d="M112.244 130.713C112.244 130.713 110.813 138.657 105.579 141.542C105.579 141.542 110.648 136.362 110.738 131.18C110.827 125.999 112.244 130.713 112.244 130.713Z" fill="#9E332E"/>
<path d="M93.3573 146.758C95.0427 148.539 99.7483 149.156 99.7483 149.156C99.5336 148.859 99.3511 148.247 99.3511 148.247C101.77 150.204 107.71 148.782 107.71 148.782C102.972 147.737 104.506 140.91 106.118 140.619C107.057 135.47 108.92 129.059 109.793 126.18C109.584 126.146 109.464 126.135 109.464 126.135C96.9303 121.289 91.6718 144.979 93.3573 146.758Z" fill="#9E332E"/>
<path d="M103.65 145.492L103.198 145.554C101.181 145.833 99.3045 144.415 99.0236 142.403L98.6961 140.04C98.417 138.027 99.8377 136.153 101.852 135.872L102.305 135.81C104.321 135.531 106.198 136.95 106.479 138.961L106.807 141.323C107.086 143.338 105.665 145.213 103.65 145.492Z" fill="#93B3F4"/>
<path d="M100.689 136.875C100.421 136.371 101.364 132.457 102.752 129.424C103.423 127.957 105.116 125.992 106.323 125.487C106.76 125.304 107.34 125.378 107.812 125.485C108.156 125.562 109.12 126.012 109.12 126.012C105.15 127.248 101.698 135.556 101.949 136.415C101.942 136.389 101.931 136.369 101.922 136.355L100.689 136.875Z" fill="#93B3F4"/>
<path d="M102.74 143.143L102.514 143.175C101.511 143.314 100.575 142.607 100.435 141.605L100.273 140.428C100.133 139.425 100.842 138.491 101.845 138.352L102.071 138.321C103.074 138.182 104.01 138.89 104.15 139.892L104.313 141.069C104.452 142.069 103.744 143.004 102.74 143.143Z" fill="#6D89CF"/>
<path d="M129.345 185.63C129.345 185.63 134.047 185.36 134.504 185.606C135.246 186.006 137.771 187.63 138.168 188.102C138.563 188.573 139.601 190.467 139.601 190.467C139.601 190.467 139.152 190.592 138.95 190.41C138.748 190.228 137.212 188.6 137.212 188.6L138.789 190.99C138.789 190.99 138.245 190.967 138.028 190.73C137.812 190.492 136.339 188.997 136.339 188.997L135.838 188.899C135.838 188.899 136.35 189.308 136.627 189.677C136.905 190.047 137.089 190.446 137.089 190.446C137.089 190.446 136.64 190.37 136.5 190.303C136.361 190.237 135.04 189.083 135.04 189.083L135.74 190.036C135.74 190.036 135.268 190.013 135.114 189.908C134.958 189.802 133.929 188.857 133.747 188.859C133.564 188.861 132.251 188.807 131.687 188.509C131.124 188.211 129.354 187.527 129.354 187.527L129.345 185.63Z" fill="#FDA6A4"/>
<path d="M100.314 153.145C100.314 153.145 97.17 154.059 96.4525 154.781C96.4525 154.781 99.7393 163.171 104.479 167.087L105.746 166.19V168.23L110.491 171.33C110.491 171.33 100.07 155.683 100.314 153.145Z" fill="#93B3F4"/>
<path d="M114.767 184.097C113.545 188.648 111.507 192.471 111.435 192.603L113.046 192.605L111.432 192.611H96.4526C96.4526 192.611 98.1899 192.607 98.1864 192.6C98.1452 192.448 100.72 185.481 96.4526 182.627C92.1764 179.767 90.627 172.734 90.627 172.734L104.23 169.411C104.23 169.411 109.836 177.577 111.432 179.134C112.657 180.329 115.511 180.419 115.511 180.419L114.767 184.097Z" fill="#93B3F4"/>
<path d="M110.233 154.529C110.233 154.529 111.68 165.946 110.489 171.33C110.489 171.33 112.432 167.768 112.704 167.114L112.376 165.156L113.629 165.59C113.629 165.59 112.523 156.489 111.523 154.893C110.523 153.298 110.154 153.143 110.154 153.143L110.233 154.529Z" fill="#93B3F4"/>
<path d="M152.431 189.578C152.431 189.578 146.364 189.801 140.435 189.774C138.964 187.496 140.766 184.767 140.766 184.767H140.769C145.906 185.703 151.421 186.593 151.421 186.593L152.431 189.578Z" fill="#FDA6A4"/>
<path d="M153.006 192.609H130.585C130.585 191.623 131.385 190.824 132.373 190.824H153.006V192.609Z" fill="#3662C1"/>
<path d="M187.604 168.229L179.291 192.609H144.401L152.941 168.229H187.604Z" fill="#93B3F4"/>
<path d="M187.604 168.229L179.366 192.384L179.291 192.609H144.911L153.451 168.229H187.604Z" fill="#93B3F4"/>
<path d="M169.427 180.194C169.212 181.124 168.28 181.88 167.348 181.88C166.416 181.88 165.834 181.124 166.049 180.194C166.264 179.263 167.196 178.507 168.128 178.507C169.06 178.507 169.642 179.263 169.427 180.194Z" fill="#EFA2A2"/>
<path d="M187.604 168.229L179.366 192.384H163.571L182.83 168.229H187.604Z" fill="#3662C1"/>
<path d="M129.351 187.525C129.351 187.525 117.809 188.532 111.43 188.248V181.991C115.61 183.143 129.345 185.63 129.345 185.63L129.351 187.525Z" fill="#FDA6A4"/>
<path d="M96.4507 154.781C96.4507 154.781 89.8503 154.931 87.8071 157.133C85.7638 159.336 89.8342 171.787 89.8342 171.787C89.8342 171.787 102.137 186.832 108.292 187.891C108.292 187.891 110.981 188.257 112.237 188.279C112.237 188.279 111.006 184.7 113.296 182.455C113.296 182.455 110.661 181.719 110.551 181.392C110.444 181.065 96.4507 154.781 96.4507 154.781Z" fill="#BED2FA"/>
<path d="M477.277 126.428C477.277 126.428 470.592 123.945 466.414 128.82C464.02 131.616 448.707 160.762 448.889 163.313C449.072 165.864 450.532 167.141 450.532 167.141C450.532 167.141 449.893 164.908 450.372 163.747C450.372 163.747 450.065 167.677 452.494 169.352C453.761 170.224 485.283 168.516 488.023 164.704C493.979 156.416 480.971 152.128 481.292 143.175C481.478 137.982 486.588 126.953 477.277 126.428Z" fill="#0B0754"/>
<path d="M483.648 144.992L483.201 145.081C481.206 145.483 479.245 144.182 478.84 142.192L478.368 139.854C477.965 137.862 479.268 135.904 481.261 135.501L481.708 135.41C483.703 135.008 485.664 136.308 486.069 138.298L486.541 140.636C486.944 142.63 485.643 144.59 483.648 144.992Z" fill="#93B3F4"/>
<path d="M512.249 192.564H491.333C487.785 186.943 484.666 179.351 483.94 173.438C483.593 170.633 483.786 168.207 484.725 166.548C487.647 161.396 483.013 155.347 483.013 155.347C483.013 155.347 489.393 157.15 490.877 162.402C492.388 167.752 496.445 185.548 496.445 185.548L511.975 188.736C512.705 190.562 512.249 192.564 512.249 192.564Z" fill="#93B3F4"/>
<path d="M512.248 192.564H491.332C487.784 186.943 484.666 179.351 483.939 173.438L487.042 172.489C487.042 172.489 490.967 190.378 493.25 190.651C495.532 190.926 512.248 192.564 512.248 192.564Z" fill="#6D89CF"/>
<path d="M486.103 163.815C484.5 165.217 482.429 166.457 479.762 167.396C469.764 170.923 464.847 162.704 462.696 156.923C464.006 155.965 465.303 155.64 466.055 155.463C466.786 155.292 467.561 155.145 468.203 155.042C469.257 154.031 470.567 150.228 470.313 144.583L470.81 144.658L479.152 145.956C479.152 145.956 479.071 148.566 479.164 151.014C479.239 152.929 479.422 154.747 479.833 155.151C480.481 155.217 480.869 155.263 480.869 155.263C480.869 155.263 480.871 155.265 480.875 155.271C481.003 155.435 483.786 159.025 486.103 163.815Z" fill="#FDA6A4"/>
<path d="M479.152 145.958C479.152 145.958 479.069 148.566 479.164 151.015C474.528 151.074 471.907 146.956 470.809 144.659L479.152 145.958Z" fill="#FC9290"/>
<path d="M490.078 172.489C490.055 172.668 487.826 179.904 487.803 180.086C487.03 186.144 485.629 192.609 485.629 192.609L482.566 192.603L462.353 192.564C462.353 192.564 464.792 185.218 458.359 173.955C458.148 173.586 457.928 173.212 457.697 172.835C456.781 171.333 462.56 155.272 462.56 155.272C462.56 155.272 465.09 154.825 468.642 154.54C468.978 154.845 471.444 163.852 475.906 164.127C481.732 164.484 479.524 154.448 479.524 154.448C481.896 154.924 482.752 155.097 485.799 156.555C485.8 156.556 490.202 171.501 490.078 172.489Z" fill="#93B3F4"/>
<path d="M480.676 148.343C480.676 148.343 469.719 148.802 469.538 141.985C469.358 135.169 467.821 130.637 474.809 130.054C481.798 129.474 483.226 132.039 483.841 134.299C484.457 136.56 483.523 148.048 480.676 148.343Z" fill="#FDA6A4"/>
<path d="M478.293 144.69C478.293 144.69 478.413 145.501 480.216 145.519C480.216 145.519 481.73 145.535 481.739 144.654C481.739 144.654 480.316 143.916 478.293 144.69Z" fill="white"/>
<path d="M479.055 147.405C472.716 145.826 470.828 140.044 470.81 139.985L471.463 139.779L471.136 139.881L471.462 139.777C471.479 139.833 473.263 145.256 479.219 146.741C479.259 146.751 479.3 146.76 479.339 146.769L479.18 147.434C479.141 147.425 479.098 147.414 479.055 147.405Z" fill="#060632"/>
<path d="M479.789 147.821L479.191 147.673C478.887 147.598 478.699 147.287 478.776 146.982C478.851 146.678 479.163 146.49 479.468 146.567L480.066 146.716C480.37 146.791 480.558 147.101 480.481 147.407C480.404 147.711 480.093 147.896 479.789 147.821Z" fill="#3A65C2"/>
<path d="M474.467 125.813C474.467 125.813 481.522 124.713 484.442 130.578C486.664 135.042 484.811 137.828 483.941 138.684C483.941 138.684 482.789 132.273 480.633 131.726C480.633 131.726 479.243 131.303 478.295 132.403C477.346 133.504 475.976 138.411 474.401 139.161C474.401 139.161 469.511 140.367 469.272 138.663C469.032 136.958 469.166 131.657 470.397 130.803C471.63 129.949 474.467 125.813 474.467 125.813Z" fill="#0B0754"/>
<path d="M472.24 144.992L471.793 145.081C469.798 145.483 467.837 144.183 467.432 142.193L466.96 139.854C466.557 137.863 467.86 135.905 469.853 135.501L470.3 135.41C472.295 135.008 474.256 136.308 474.661 138.298L475.133 140.637C475.537 142.63 474.235 144.59 472.24 144.992Z" fill="#93B3F4"/>
<path d="M468.755 136.573C468.456 136.087 468.014 132.175 469.213 129.061C469.792 127.555 470.728 126.698 471.902 126.119C472.326 125.91 472.804 125.797 473.289 125.797L474.469 125.815C470.581 127.293 469.682 135.195 469.984 136.039C469.975 136.012 469.962 135.994 469.953 135.98L468.755 136.573Z" fill="#93B3F4"/>
<path d="M471.186 142.704L470.963 142.748C469.968 142.948 468.991 142.302 468.79 141.308L468.554 140.144C468.354 139.152 469.002 138.175 469.996 137.975L470.22 137.93C471.213 137.73 472.192 138.377 472.392 139.37L472.628 140.535C472.83 141.526 472.181 142.503 471.186 142.704Z" fill="#6D89CF"/>
<path d="M462.353 192.564C462.353 192.564 464.791 185.219 458.359 173.956L460.755 170.967C460.755 170.967 464.997 182.963 470.299 186.46C475.589 189.951 481.814 189.222 482.565 192.604L462.353 192.564Z" fill="#6D89CF"/>
<path d="M462.562 155.274C462.562 155.274 458.2 155.653 455.28 160.804C452.358 165.956 446.813 185.208 446.813 192.564H470.157C470.157 192.564 470.614 190.562 469.884 188.74L455.437 185.956C455.437 185.956 464.133 173.066 464.224 167.507C464.316 161.946 462.562 155.274 462.562 155.274Z" fill="#93B3F4"/>
<path d="M470.298 190.197C470.298 190.197 474.847 189.753 475.6 189.958C476.353 190.163 478.509 191.051 478.989 191.359C479.468 191.666 480.391 192.564 480.391 192.564C480.391 192.564 479.81 192.675 479.466 192.598C479.125 192.521 478.098 192.454 477.824 192.43C477.55 192.407 476.568 192.611 476.568 192.611H469.517L470.298 190.197Z" fill="#FDA6A4"/>
<path d="M511.488 192.609H489.067C489.067 191.623 489.867 190.824 490.855 190.824H511.488V192.609Z" fill="#0B0754"/>
<path d="M546.086 168.229L537.771 192.609H502.884L511.423 168.229H546.086Z" fill="#3662C1"/>
<path d="M546.086 168.229L537.848 192.384L537.771 192.609H503.394L511.933 168.229H546.086Z" fill="#3662C1"/>
<path d="M527.91 180.194C527.695 181.124 526.763 181.88 525.83 181.88C524.898 181.88 524.315 181.124 524.531 180.194C524.746 179.263 525.678 178.507 526.611 178.507C527.543 178.507 528.124 179.263 527.91 180.194Z" fill="#FA7269"/>
<path d="M546.086 168.229L537.848 192.384H522.053L541.312 168.229H546.086Z" fill="#0B0754"/>
</g>
<defs>
<clipPath id="clip0">
<rect width="570" height="195" fill="white"/>
</clipPath>
</defs>
</svg>
