<svg xmlns="http://www.w3.org/2000/svg" width="297.8359" height="125.6836" viewBox="0 0 297.8359 125.6836"><title>cloud_x1</title><ellipse cx="13.7231" cy="104.306" rx="13.7231" ry="5.8533" fill="#d2e5f9"/><ellipse cx="153.392" cy="35.4511" rx="39.9997" ry="35.4478" fill="#fff"/><circle cx="191.0987" cy="46.5254" r="24.3737" fill="#fff"/><ellipse cx="193.3917" cy="75.542" rx="37.9997" ry="32.479" fill="#fff"/><ellipse cx="238.0989" cy="89.4599" rx="22.6264" ry="18.5611" fill="#fff"/><ellipse cx="261.7256" cy="92.3368" rx="15" ry="8.3333" fill="#fff"/><ellipse cx="116.392" cy="57.5547" rx="29.6667" ry="21.1153" fill="#fff"/><circle cx="142.6709" cy="86.8335" r="29.2788" fill="#fff"/><ellipse cx="102.7252" cy="89.4599" rx="32.6667" ry="18.5611" fill="#fff"/><ellipse cx="68.0586" cy="94.1239" rx="18.6665" ry="13.8972" fill="#fff"/><path d="M276.7285,92.34c0,4.6-6.72,8.33-15,8.33a26.2706,26.2706,0,0,1-5.14-.51c-4.1006,4.75-10.8506,7.86-18.49,7.86-7.99,0-15.01-3.4-19.04-8.53a40.2172,40.2172,0,0,1-16.08,7.48,43.6353,43.6353,0,0,1-9.59,1.05,41.7933,41.7933,0,0,1-24.68-7.8,29.2731,29.2731,0,0,1-48.8,5.02,52.1372,52.1372,0,0,1-17.18,2.78,49.299,49.299,0,0,1-21.08-4.39,21.9886,21.9886,0,0,1-13.59,4.39,22.1492,22.1492,0,0,1-13.19-4.07h-.01c-3.38-2.52-5.47-5.99-5.47-9.83a11.73,11.73,0,0,1,3.84-8.43c3.41-3.32,8.78-5.46,14.83-5.46a24.3576,24.3576,0,0,1,5.69.66c4.17-4.54,11.55-7.98,20.43-9.35-4.63-3.72-7.45-8.62-7.45-13.99,0-10.94,11.7-19.95,26.69-21.01,0-.09-.01-.18-.01-.27-.01-.27-.02-.54-.02-.82,0-19.58,17.91-35.45,40-35.45,16.79,0,31.16,9.17,37.09,22.17.21-.01.41-.02.62-.02a24.3714,24.3714,0,0,1,24.37,24.38c0,.84-.04,1.68-.12,2.51,8.58,5.2,14.52,13.37,15.78,22.76a27.3293,27.3293,0,0,1,6.97-.9c10.22,0,18.85,5.55,21.66,13.18.64-.04,1.3-.08,1.97-.08C270.0088,84,276.7285,87.73,276.7285,92.34Z" fill="#fff"/><path d="M266.2969,98.1621c-.8281,0-1.6377.0259-2.4365.0635C260.3867,92.1767,249.7275,87.77,237.1045,87.77c-9.69,0-18.2246,2.5972-23.24,6.54a34.1051,34.1051,0,0,0-6.2334-3.9892,20.84,20.84,0,0,0,.1884-2.8623c0-15.35-15.7744-27.7906-35.2358-27.7906-.3037,0-.6074.0113-.8965.0113-8.5884-14.8135-29.3511-25.27-53.6269-25.27-2.1109,0-4.1929.08-6.2461.228,0,.1025.0141.2051.0141.3081-21.6733,1.2085-38.59,11.4834-38.59,23.959,0,6.1235,4.0771,11.7114,10.7715,15.9536C71.1709,76.42,60.5,80.3423,54.4712,85.52a44.2548,44.2548,0,0,0-8.2271-.7529c-8.7475,0-16.5117,2.44-21.4423,6.2265a15.3246,15.3246,0,0,0-3.1372,9.043c0,4.2764,1.9951,8.3018,5.4941,11.78h.0142c4.8872,2.874,11.61,4.6416,19.0712,4.6416,7.75,0,14.7188-1.9273,19.649-5.0064,8.227,3.1245,18.854,5.0064,30.479,5.0064a93.89,93.89,0,0,0,24.84-3.17c7.7642,7.5605,19.62,12.396,32.9077,12.396,16.4107,0,31.4825-9.0669,36.0191-17.19,9.1172,5.2632,23.3867,7.9541,36.33,7.6065a50.3776,50.3776,0,0,0,10.6357,1.1094c9.4365,0,17.7627-2.4688,22.8252-6.2383a49.3023,49.3023,0,0,0,6.3672.4087c10.2363,0,18.5342-2.959,18.5342-6.6089S276.5332,98.1621,266.2969,98.1621Z" fill="#adcff7"/><path d="M270.6963,88.4111A69.97,69.97,0,0,0,258.001,89.52c-1.3867-1.9229-4.4356-3.6113-8.5733-4.87a3.4231,3.4231,0,0,0,.0743-.6685c0-5.2739-12.15-9.5493-27.14-9.5493-.0723,0-.1435.0015-.2168.0019a3.5576,3.5576,0,0,0,.2168-1.1889c0-2.1236-1.9727-4.085-5.3047-5.6709a4.2659,4.2659,0,0,0,1.1807-2.7905c0-5.274-12.15-9.5489-27.14-9.5489a72.1463,72.1463,0,0,0-10.6621.7657,3.47,3.47,0,0,0,.0948-.7657c0-4.5327-8.9771-8.3247-21.0137-9.3022a12.9289,12.9289,0,0,0-22.6211-12.356c-2.9131-5.3486-9.41-9.0786-16.9746-9.0786-10.2818,0-18.6172,6.88-18.6172,15.3682a12.9494,12.9494,0,0,0,1.1089,5.1831c-9.5176,1.4834-16.1607,4.834-16.1607,8.7329,0,2.2417,2.2017,4.3017,5.878,5.9311-5.5542,1.7486-9.0528,4.2891-9.0528,7.1177a4.2221,4.2221,0,0,0,1.12,2.7158,42.46,42.46,0,0,0-13.7368,3.6294,15.9177,15.9177,0,0,0-8.1372-2.1308c-6.7,0-12.2095,3.76-12.8691,8.5776a16.9122,16.9122,0,0,0-5.0674-.7617c-7.1445,0-12.936,4.2754-12.936,9.5493S37.2432,97.96,44.3877,97.96c5.74,0,10.6-2.7622,12.291-6.583,2.189,2.981,6.4639,5.0059,11.38,5.0059,6.9746,0,12.644-4.0772,12.91-9.1777a71.01,71.01,0,0,0,11.8144.95c9.5928,0,18.0171-1.753,22.8433-4.3965a7.6782,7.6782,0,0,0,.6938.709,3.9723,3.9723,0,0,0-.7886,2.2861c0,5.2739,12.15,9.5488,27.1392,9.5488S169.81,92.0278,169.81,86.7539a4.6437,4.6437,0,0,0-1.6792-3.3125,68.3758,68.3758,0,0,0,14.0337,1.3745,69.5342,69.5342,0,0,0,13.0844-1.1821,3.1871,3.1871,0,0,0-.0254.3481c0,2.8882,3.6494,5.4746,9.4073,7.2256a3.4259,3.4259,0,0,0-.0733.6689c0,5.274,12.15,9.5494,27.1387,9.5494a69.9684,69.9684,0,0,0,12.6953-1.1094c2.9824,4.1343,13.6279,7.1929,26.3047,7.1929,14.9883,0,27.14-4.2754,27.14-9.5494S285.6846,88.4111,270.6963,88.4111Z" fill="#d2e5f9"/><path d="M151.6646,70.8989s13.7084,1.0376,12.979,9.3276C164.6436,80.2265,163.4146,73.0307,151.6646,70.8989Z" fill="#fff"/><path d="M150.1245,46.5254c-1.2266-.3706,14.2041-.4322,19.4971,11.53s-6.457,15.2114-6.457,15.2114S181.584,56.0337,150.1245,46.5254Z" fill="#fff"/><path d="M92.1309,59.7138s23.0337-2.0673,28.0337,7.1177,0,11.8384,0,11.8384,6-.6533,10.75,2.5967,1.3129,7.1445,1.3129,7.1445,2.4371-8.7246-13.0629-8.1846C119.1646,80.2265,128.3477,59.9111,92.1309,59.7138Z" fill="#fff"/></svg>