<svg xmlns="http://www.w3.org/2000/svg" width="243.8965" height="128.0454" viewBox="0 0 243.8965 128.0454"><title>cloud_x3</title><ellipse cx="94.9524" cy="64.9215" rx="18.9663" ry="20.052" fill="#adcff7"/><path d="M172.9834,35.7861c0-19.7309-16.77-35.726-37.458-35.726-16.9648,0-31.2881,10.76-35.8965,25.5122-11.4814,1.46-20.3467,10.8144-20.3467,22.165,0,12.3633,10.5079,22.3857,23.4707,22.3857A24.1587,24.1587,0,0,0,115.95,66.2471a38.6348,38.6348,0,0,0,19.5752,5.2646C156.2129,71.5117,172.9834,55.5166,172.9834,35.7861Z" fill="#adcff7"/><path d="M83.7861,71.5117a18.7367,18.7367,0,0,0-16.0878,9.4688,18.1683,18.1683,0,0,0-10.6016-3.4229c-9.1445,0-16.7744,6.8433-18.5664,15.9492-.959-.0791-1.9356-.1323-2.9375-.1323A29.6868,29.6868,0,0,0,22.5684,96.125a35.5781,35.5781,0,0,0-3.6016-.186C8.4912,95.939,0,100.4282,0,105.9653s8.4912,10.0259,18.9668,10.0259a29.6828,29.6828,0,0,0,13.0244-2.751,35.5777,35.5777,0,0,0,3.6016.1861,33.1874,33.1874,0,0,0,8.6426-1.1089,18.3372,18.3372,0,0,0,12.8613,5.3442,18.7369,18.7369,0,0,0,16.0889-9.4682,18.1652,18.1652,0,0,0,10.6,3.4223c10.4756,0,18.9668-8.9775,18.9668-20.0517S94.2617,71.5117,83.7861,71.5117Z" fill="#adcff7"/><path d="M183.95,91.0137c3.5088-2.5747,5.6465-5.9253,5.6465-9.6006,0-8.106-10.33-14.6768-23.0723-14.6768s-23.0722,6.5708-23.0722,14.6768c0,4.9463,3.8584,9.312,9.7529,11.9707-3.5088,2.5747-5.6475,5.9258-5.6475,9.6011,0,8.1059,10.33,14.6767,23.0723,14.6767s23.0723-6.5708,23.0723-14.6767C193.7022,98.0381,189.8438,93.6729,183.95,91.0137Z" fill="#adcff7"/><path d="M188.3711,77.1611a26.793,26.793,0,1,0,6.3838-52.8144c-.23,0-.4561.0117-.6836.0176C187.55,10.0811,171.7608,0,153.3047,0c-24.2842,0-43.97,17.4458-43.97,38.9663,0,.4033.0205.8023.0342,1.2026C92.8906,41.334,80.0215,51.229,80.0215,63.2637c0,5.9008,3.0986,11.2837,8.1943,15.3789-9.7636,1.5-17.872,5.28-22.457,10.2729a27.0082,27.0082,0,0,0-6.2568-.729c-11.333,0-20.52,6.8394-20.52,15.2764,0,.1592.0254.313.0313.4707a33.4183,33.4183,0,0,0-5.6494-.4707,27.7392,27.7392,0,0,0-10.8516,1.9712,14.5207,14.5207,0,0,0-7.67-1.9712c-5.6943,0-10.3106,2.6479-10.3106,5.9141s4.6163,5.9135,10.3106,5.9135a15.4248,15.4248,0,0,0,6.6816-1.4145,26.0329,26.0329,0,0,0,11.84,2.4555,26.7986,26.7986,0,0,0,11.4189-2.2373A24.3035,24.3035,0,0,0,59.502,118.74a24.1746,24.1746,0,0,0,14.9336-4.8227A54.2879,54.2879,0,0,0,97.6094,118.74,57.35,57.35,0,0,0,116.5,115.687a32.1763,32.1763,0,0,0,44.3662,5.4824c2.5186,2.1924,6.9961,3.6563,12.1172,3.6563,7.4883,0,13.6182-3.1216,14.2149-7.0908a7.5809,7.5809,0,0,0,3.8476,1.0048c3.44,0,6.2295-2.0961,6.2295-4.6816s-2.7891-4.6811-6.2295-4.6811c-.1162,0-.23.0083-.3437.0126a2.2912,2.2912,0,0,0,.4355-1.291c0-2.56-4.86-4.6357-10.8555-4.6357a19.5834,19.5834,0,0,0-8.0136,1.5166,32.1453,32.1453,0,0,0,1.1269-13.9424,11.0811,11.0811,0,0,0,2.3526.2612C182.6045,91.2983,188.1729,85.0059,188.3711,77.1611Z" fill="#fff"/><path d="M185.3662,21.4956S204.0537,45.4043,174.1,55.8477C174.1,55.8477,198.0078,43.481,185.3662,21.4956Z" fill="#d2e5f9"/><path d="M169.7022,78.9321S188.39,66.84,174.1,55.8477C174.1,55.8477,183.7178,64.0918,169.7022,78.9321Z" fill="#d2e5f9"/><path d="M126.1328,82.23s24.0576,26.9321,43.5694-3.2974C169.7022,78.9321,154.5645,104.49,126.1328,82.23Z" fill="#d2e5f9"/><path d="M182.6123,62.0308s19.2432,16.6264,33.5332-7.5572C216.1455,54.4736,202.9424,73.4355,182.6123,62.0308Z" fill="#d2e5f9"/><path d="M195.5352,31.2056s17.3808.3652,17.0381,14.5766C212.5733,45.7822,209.8252,34.87,195.5352,31.2056Z" fill="#fff"/><path d="M111.4414,41.832s5.7715-2.4023,16.4893,5.669,12.6416,28.4077,0,34.1792C127.9307,81.68,143.5947,54.1987,111.4414,41.832Z" fill="#d2e5f9"/><path d="M120.5108,99.8179s-4.9551-24.2124-32.295-21.1753C88.2158,78.6426,111.167,80.0312,120.5108,99.8179Z" fill="#d2e5f9"/><path d="M152.3887,110.8105c.7871.86-10.7178-21.71-31.8779-10.9926C120.5108,99.8179,137.5488,94.5962,152.3887,110.8105Z" fill="#d2e5f9"/><path d="M39.0137,103.9336s9.6328-11.2769,18.083-7.0093,4.0537,8.9395,4.0537,8.9395S54.6074,92.168,39.0137,103.9336Z" fill="#d2e5f9"/><path d="M84.2354,108.062s-.55-19.7866-23.085-2.1982C61.15,105.8638,78.1885,95.146,84.2354,108.062Z" fill="#d2e5f9"/><ellipse cx="208.0633" cy="119.9791" rx="35.8335" ry="3.4139" fill="#fff"/><ellipse cx="188.9626" cy="123.393" rx="23.5835" ry="1.6668" fill="#fff"/><ellipse cx="191.3274" cy="115.4663" rx="16.7359" ry="1.0991" fill="#fff"/><ellipse cx="119.7981" cy="123.3931" rx="32.1059" ry="2.918" fill="#fff"/><ellipse cx="108.2559" cy="126.6876" rx="32.1875" ry="1.3576" fill="#fff"/><ellipse cx="94.9524" cy="66.7362" rx="25.0629" ry="2.4378" fill="#fff"/><ellipse cx="69.8106" cy="58.7778" rx="48.081" ry="2.8111" fill="#fff"/><ellipse cx="82.0539" cy="54.6686" rx="22.3091" ry="2.155" fill="#fff"/><ellipse cx="82.054" cy="61.5889" rx="13.3023" ry="2.8853" fill="#fff"/></svg>