<svg xmlns="http://www.w3.org/2000/svg" width="175.5835" height="71.167" viewBox="0 0 175.5835 71.167"><title>cloud_x2</title><path d="M139,53.5a28.5677,28.5677,0,0,0-13.0181,2.81,42.3958,42.3958,0,0,0-8.2319-.752c-1.1367,0-2.2378.042-3.3.1143-1.6851-.8535-4.9814-1.4912-8.9707-1.69a.7516.7516,0,0,0,.02-.0869c0-.83-1.2739-1.5273-3.0366-1.7842a3.2627,3.2627,0,0,0,.7036-1.9443c0-3.4981-6.4922-6.334-14.5-6.334a31.93,31.93,0,0,0-4.5093.3164c-.6548-1.6142-3.1225-2.8164-6.0742-2.8164-3.4517,0-6.25,1.6416-6.25,3.667,0,1.3477,1.2427,2.5225,3.0889,3.1592a3.3008,3.3008,0,0,0-.7554,2.0078l.0015.0146c-.2764-.0078-.5533-.0146-.835-.0146-5.7012,0-10.3228,1.6748-10.3325,3.7432a39.12,39.12,0,0,0-5.7925-.41,33.8265,33.8265,0,0,0-8.2612.9092,28.991,28.991,0,0,0-5.6138-.4922c-4.2466,0-7.7437.7148-8.26,1.6387-1.46-.0352-2.9863-.0557-4.5683-.0557-9.8516,0-17.8379.7275-17.8379,1.625,0,.2344.5552.4561,1.5347.6572C5.7793,57.9609,0,58.3271,0,58.75c0,.5986,11.5664,1.083,25.8335,1.083,10.9385,0,20.2817-.2851,24.05-.6875a36.0891,36.0891,0,0,0,7.3252.6875c5.7324,0,10.5054-1.0986,11.5674-2.5547a26.0827,26.0827,0,0,0,4.5576.3887c3.7773,0,7.0718-.7383,8.874-1.8359a30.5738,30.5738,0,0,0,6.46.6689c.5122,0,1.0181-.0127,1.5171-.0352A.8844.8844,0,0,0,90,56.958C90,58.6387,95.7461,60,102.8335,60c.12,0,.2368-.0039.3564-.0039.2413,2.3144,6.6592,4.1709,14.56,4.1709,1.2988,0,2.5513-.0557,3.75-.1494,1.5889,4.0722,8.8154,7.1494,17.5,7.1494,9.8491,0,17.8335-3.9551,17.8335-8.834S148.8491,53.5,139,53.5ZM45.2705,58.0371c.3823-.0517.7251-.1055,1.042-.16.1245.08.2666.1591.4146.2363C46.269,58.0869,45.7822,58.0615,45.2705,58.0371Z" fill="#d2e5f9"/><path d="M158.9634,55.2305c-.39,0-.76.01-1.14.01a4.4216,4.4216,0,0,0,1.14-2.88c0-2.3506-2.04-4.37-4.93-5.21a3.4373,3.4373,0,0,0,.43-1.61c0-2.69-3.4-4.91-7.79-5.24-2.56-4.46-8.39-7.9795-15.74-9.49-.25-2.96-4.19-5.31-9.04-5.31a14.0113,14.0113,0,0,0-3.57.45,15.9231,15.9231,0,0,0-8.03-6.09,23.3618,23.3618,0,0,0-45.01-4.6006,5.2959,5.2959,0,0,0-3.08-1,5.8645,5.8645,0,0,0-5.6,6.09,6.2531,6.2531,0,0,0,2.24,4.87,11.1837,11.1837,0,0,0-1.18,4.99,11.6127,11.6127,0,0,0,.17,1.88,11.0243,11.0243,0,0,0-1.42-.09c-3.22,0-5.95,1.31-6.98,3.13a19.6549,19.6549,0,0,0-7.23,3.65c-5.34.25-9.49,1.92-9.72,3.98-2.54,1.04-4.15,2.61-4.15,4.36a1.96,1.96,0,0,0,.04.35c-3.56.63-6.04,2.05-6.04,3.71a2.131,2.131,0,0,0,.68,1.45c-5.04.34-8.43.96-8.43,1.67,0,.69,3.13,1.29,7.87,1.6406,2.69.19,5.89.31,9.34.31,7.97,0,14.65-.61,16.61-1.45a29.2494,29.2494,0,0,0,9.26,1.45c10.4,0,18.83-4.98,18.83-11.13a5.985,5.985,0,0,0-.09-1.04,23.3695,23.3695,0,0,0,17.21,1.74,15.7644,15.7644,0,0,0,4.85,3.5c2.86,6.58,12.7,11.43,24.39,11.43a40.8015,40.8015,0,0,0,4.75-.28c0,.08-.02.16-.02.24,0,5.2705,6.6,9.54,14.75,9.54,5.32,0,9.99-1.82,12.58-4.56a7.245,7.245,0,0,0,2.17-4.96c.62.01,1.24.02,1.88.02,9.18,0,16.62-1.24,16.62-2.76S168.1436,55.2305,158.9634,55.2305Z" fill="#fff"/><path d="M154.9136,65.69c-2.59,2.7393-7.26,4.56-12.58,4.56-8.15,0-14.75-4.2695-14.75-9.54,0-.08.02-.16.02-.24a40.8015,40.8015,0,0,1-4.75.28c-11.69,0-21.53-4.85-24.39-11.43a15.7644,15.7644,0,0,1-4.85-3.5,23.3695,23.3695,0,0,1-17.21-1.74,5.985,5.985,0,0,1,.09,1.04c0,6.1494-8.43,11.13-18.83,11.13a29.2494,29.2494,0,0,1-9.26-1.45c-1.96.84-8.64,1.45-16.61,1.45-3.45,0-6.65-.12-9.34-.31,1.82-1.8808,4.91-4.5908,7.99-5.12a8.0468,8.0468,0,0,1,7.34,2s-.84-11.17,9.16-10.34c8.38.6992,7.17,6.1992,6.56,7.96.52-1.11,2.17-3.49,6.44-2.46,3.01.73,4.07,2.51,4.42,3.97.06-2.38.69-5.86,3.75-5.97a8.0636,8.0636,0,0,1,2.57.27c-1.13-1.71-2.03-4.52-.9-8.7695,2.16-8.16,8.5-9.66,13.66-10,5.17-.33,7.17,2.17,10,5.5,1.62,1.9091,1.96,5.18,1.96,7.63,1.22-.6905,4.06-.7608,10.21,1.04,14.62,4.27,8.99,13.73,8.84,13.9892a14.854,14.854,0,0,1,13.83-1.8193c6.67,2.6094,6.4,7.62,5.88,9.09.82-.84,3.41-2.45,8.12-.09,5.57,2.7793,1.85,5.9492.88,6.68C144.5537,68.59,152.2534,63.69,154.9136,65.69Z" fill="#d2e5f9" opacity="0.29"/><path d="M103.7085,30.25s7-3,12.75-1,6,10,6,10S118.4585,27.375,103.7085,30.25Z" fill="#d2e5f9"/><path d="M132.7085,49.375s2.7373-13.9785-10.25-10.125C122.4585,39.25,131.0234,37.2441,132.7085,49.375Z" fill="#d2e5f9"/><path d="M94.4585,6.375s10.875,4,11.25,12.125-2,11.75-2,11.75S109.2085,13.375,94.4585,6.375Z" fill="#d2e5f9"/><circle cx="69.4585" cy="27.625" r="4.625" fill="#d2e5f9" opacity="0.29"/><circle cx="71.521" cy="20.875" r="2.5625" fill="#d2e5f9" opacity="0.29"/></svg>