<svg xmlns="http://www.w3.org/2000/svg" width="405.5566" height="126.6797" viewBox="0 0 405.5566 126.6797"><title>cloud_x4</title><path d="M290.8369,99.2539c0-5.8428-3.6817-10.5791-8.2237-10.5791S274.39,93.4111,274.39,99.2539a13.4573,13.4573,0,0,0,.2471,2.5312,22.0669,22.0669,0,0,0-5.9971-.8154c-6.7881,0-12.5566,2.9512-14.77,7.08a38.1727,38.1727,0,0,0-10.23-1.33c-10.77,0-19.5,3.9736-19.5,8.875s8.73,8.875,19.5,8.875c6.6455,0,12.5078-1.5156,16.0283-3.8262a20.9819,20.9819,0,0,0,8.9717,1.93c8.6982,0,15.75-4.8359,15.75-10.8017a7.5872,7.5872,0,0,0-.3066-2.1163C287.9228,108.7627,290.8369,104.4511,290.8369,99.2539Z" fill="#adcff7"/><path d="M276.6044,76.5517c-6.7412,0-12.6084,1.73-15.6767,4.2832-5.0068.0332-9.2988,1.9659-11.2481,4.7344-.8476-.06-1.7089-.1-2.5937-.1a33.5924,33.5924,0,0,0-8.3174,1.001A67.6145,67.6145,0,0,0,215.43,84.0049a78.075,78.075,0,0,0-9.8554,1.1845c-4.6944-5.0674-13.669-8.5205-24.0137-8.63a8.8094,8.8094,0,0,0,1.3691-4.6132c0-6.2051-7.0859-11.4961-17.04-13.5547a4.7879,4.7879,0,0,0,.417-1.9131c0-4.9658-8.041-8.9922-17.959-8.9922s-17.958,4.0264-17.958,8.9922c0,2.5713,2.167,4.8838,5.623,6.5225-3.5185,2.4628-5.623,5.5683-5.623,8.9453,0,7.7851,11.1514,14.1328,25.1318,14.4619a11.3089,11.3089,0,0,0-2.4648,6.8525c0,9.2285,12.5361,16.709,28,16.709.7363,0,1.4648-.0225,2.1875-.0557,6.1211,5.56,19.1894,8.9307,34.1074,8.087,19.2031-1.085,34.582-8.7618,35.794-17.5167,3.7939-.665,6.9423-1.9277,8.8623-3.5458,4.2216-.2061,7.8515-1.7618,9.8632-4.0049a37.6519,37.6519,0,0,0,4.7334.3027c9.9151,0,17.9522-3.7353,17.9522-8.3418S286.5195,76.5517,276.6044,76.5517Z" fill="#adcff7"/><path d="M63.91,103.97c-10.9248,0-20.5889.6582-26.5146,1.668,1.4951-.5293,2.3691-1.168,2.3691-1.8555,0-1.7314-5.54-3.15-12.5986-3.2979a9.6783,9.6783,0,0,0,3.0674-1.6718,25.9962,25.9962,0,0,0,6.3486-1.0391,24.2232,24.2232,0,0,0,7.1826,1.0713c9.5957,0,17.375-5.3164,17.375-11.875A9.7709,9.7709,0,0,0,57.44,79.6621a4.2612,4.2612,0,0,0,.3242-1.5674c0-4.2354-6.5654-7.7715-15.3408-8.6562a3.7364,3.7364,0,0,0,.2158-1.1827c0-4.26-7.4668-7.7129-16.6777-7.7129-5.1866,0-9.82,1.0948-12.8789,2.8125C8.0712,63.4883,4.14,64.7461,4.14,66.2812c0,1.125,2.1123,2.1016,5.2129,2.5948.5049,2.9257,4.5254,5.3935,10.1191,6.4873a4.6737,4.6737,0,0,0-.957,2.7314c0,2.9463,3.1885,5.55,8.0752,7.1641a8.2791,8.2791,0,0,0-.167,1.2646c-5.8779.4649-10.4648,2.5967-11.2686,5.2744-7.6357.2178-13.64,2.4326-13.64,5.1367,0,2.5957,5.5293,4.7364,12.7217,5.1-1.3213.5078-2.0967,1.1054-2.0967,1.748,0,1.8291,6.1846,3.3125,13.8125,3.3125a50.0869,50.0869,0,0,0,7.3105-.5059c-1.2919.4307-1.998.8955-1.998,1.3809,0,2.209,14.6162,4,32.6455,4s32.6465-1.791,32.6465-4S81.94,103.97,63.91,103.97Z" fill="#adcff7"/><path d="M228.9091,112.75a16.245,16.245,0,0,0-8.2392-1.9307,20.6224,20.6224,0,0,0-4.0508.3906c0-.13.03-.26.03-.3906,0-4.0693-4.24-7.47-9.99-8.47a9.8219,9.8219,0,0,0,.08-2.92c-1.0693-8.23-12.6094-13.55-26.87-13a6.62,6.62,0,0,0,.4707-2.45,6.3732,6.3732,0,0,0-3.08-5.52,5.782,5.782,0,0,0-2.28-.79c.0206-.4.0606-.8.0606-1.21a19.4718,19.4718,0,0,0-.25-3.17,19.2718,19.2718,0,0,0-13.0606-15.5508c-3.41-5.88-8.3-9.8691-13.83-10.6894a20.8067,20.8067,0,0,0,.38-3.91c0-8.6894-5.26-15.73-11.76-15.73a8.775,8.775,0,0,0-2.05.26,27.1256,27.1256,0,0,0,2.05-10.72c0-9.36-4.08-16.95-9.11-16.95-3.5293,0-6.5791,3.7392-8.1,9.2a17.3929,17.3929,0,0,0-8.7695-2.461C95.4492,6.7392,83.22,27.55,83.22,53.22v.21c-2.64-.13-5.3506-.21-8.12-.21a129.0164,129.0164,0,0,0-31.95,3.66c-1.31-2.13-4.64-3.66-8.56-3.66-5.05,0-9.1406,2.53-9.1406,5.65a3.6534,3.6534,0,0,0,.41,1.67,32.243,32.243,0,0,0-4.54-.31C14.67,60.23,9.29,62.1494,9.29,64.51c0,2.37,5.38,4.29,12.0293,4.29a32.1118,32.1118,0,0,0,4.15-.26,2.3191,2.3191,0,0,0-.02.26c0,6.07,11.04,11.32,27.1406,13.89a9.9377,9.9377,0,0,0-2.04,5.96,9.1561,9.1561,0,0,0,.18,1.75c-5.9794.33-10.64,2.71-10.82,5.6406-12.4795.25-22.6992,1.71-26.21,3.64-1.18-.9405-3.63-1.59-6.4795-1.59-3.99,0-7.22,1.27-7.22,2.84s3.2294,2.84,7.22,2.84a12.1853,12.1853,0,0,0,6.12-1.34c2.7,1.75,10.8,3.14,21.2,3.67-.75.37-1.1807.77-1.1807,1.19,0,1.47,4.96,2.72,12.02,3.26,2.33.17,4.89.2695,7.58.2695,9.9795,0,18.21-1.35,19.43-3.08a14.59,14.59,0,0,0,3.45.54,8.1607,8.1607,0,0,0-.74,3.4,7.731,7.731,0,0,0,7.54,7.9,7.2742,7.2742,0,0,0,3.97-1.2,46.6933,46.6933,0,0,0,26.83,8.3,45.7556,45.7556,0,0,0,34.02-14.61c4.2393,6.8506,16.88,10.58,31.1094,8.54q1.95-.2841,3.81-.6894c1.38,3.77,5.7295,6.52,10.88,6.52,5.33,0,9.79-2.9394,11.01-6.8994a17.8036,17.8036,0,0,0,7.16-1.8008,11.7986,11.7986,0,0,0,6.39,2.52,21.62,21.62,0,0,0,2.8506.1905c5.68,0,10.2793-2.15,10.2793-4.82A3.6313,3.6313,0,0,0,228.9091,112.75ZM66.38,104.73c.1094-.02.22-.0293.3194-.05.06.05.1308.09.19.14C66.72,104.79,66.54,104.76,66.38,104.73Z" fill="#fff"/><path d="M382.17,93.97c0,3.97-8.21,7.19-18.34,7.19a46.9951,46.9951,0,0,1-4.8506-.2607c-1.35,5.63-8,9.92-16.0195,9.92a19.7148,19.7148,0,0,1-10.9307-3.14,49.1921,49.1921,0,0,1-13.8193,1.95,50.8255,50.8255,0,0,1-9.52-.9,10.2414,10.2414,0,0,1-9.26,5.3506c-5.58,0-10.11-4-10.11-8.94,0-.0595.0107-.12.0107-.1894a48.957,48.957,0,0,1-7.91,1.17,3.0908,3.0908,0,0,1,.1093.7392c0,4.16-8.34,7.63-19.5195,8.54-2.01,1.8105-8.04,3.12-15.17,3.12-8.78,0-15.8906-1.99-15.8906-4.4394,0-1.0606,1.31-2.0206,3.49-2.78-2.2-1.3106-3.49-2.82-3.49-4.44,0-4.76,10.96-8.63,24.6006-8.76a11.2613,11.2613,0,0,1-.62-3.68c0-4.22,2.16-7.6406,4.82-7.6406,2.0195,0,3.75,1.99,4.46,4.8008a9.4182,9.4182,0,0,1,2.64-.99,7.73,7.73,0,0,1-.2305-1.88c0-4.17,3.3105-7.71,7.87-8.92.04-.34.0908-.6807.16-1.0107a22.0721,22.0721,0,0,1-3.91-1.2393c-.68.0293-1.38.05-2.08.05-8.76,0-15.85-2.51-15.85-5.62a2.4856,2.4856,0,0,1,.61-1.54c-.2,0-.41.01-.61.01a38.6732,38.6732,0,0,1-9.34-1.0595,9.3847,9.3847,0,0,1-4.59,1.06c-3.29,0-5.96-1.29-5.96-2.88,0-1.21,1.5293-2.24,3.6992-2.67,0-.08-.0293-.16-.0293-.23,0-3.2,7.26-5.79,16.22-5.79a39.0223,39.0223,0,0,1,9.46,1.09c2.61-5.52,9.43-9.4707,17.47-9.4707A21.695,21.695,0,0,1,292.54,54.46c1.7695-6.58,6.68-11.32,12.4795-11.32,6.51,0,11.9,5.95,12.98,13.78h.21a51.3751,51.3751,0,0,1,6.51.42,6.8205,6.8205,0,0,1,2.2695-.42,6.8916,6.8916,0,0,1,4.6406,1.83c.13.0293.26.0693.38.1093,1.1094-3.42,2.88-5.64,4.88-5.64,2.84,0,5.22,4.46,5.88,10.4805a29.1817,29.1817,0,0,1,8.62,8.35,12.3179,12.3179,0,0,1,1.36-.08c7.3095,0,13.2294,6.21,13.2294,13.87,0,.34-.03.66-.05.99C375.0693,87.2392,382.17,90.2793,382.17,93.97Z" fill="#fff"/><path d="M230.9492,115.63c0,2.67-4.6,4.82-10.2793,4.82-4.07,0-7.57-1.11-9.24-2.711a17.8036,17.8036,0,0,1-7.16,1.8008c-1.22,3.96-5.68,6.8994-11.01,6.8994-5.15,0-9.5-2.75-10.88-6.52q-1.86.4043-3.81.6894c-14.2295,2.04-26.87-1.6894-31.1094-8.54a45.7556,45.7556,0,0,1-34.02,14.61,46.6933,46.6933,0,0,1-26.83-8.3,7.2742,7.2742,0,0,1-3.97,1.2,7.731,7.731,0,0,1-7.54-7.9,8.1607,8.1607,0,0,1,.74-3.4,14.59,14.59,0,0,1-3.45-.54c-1.22,1.7305-9.45,3.08-19.43,3.08-10.83,0-19.6006-1.58-19.6006-3.5293,0-.42.4307-.82,1.1807-1.19-10.4-.53-18.5-1.92-21.2-3.67,0,0,7.05-4.33,16.8-.77s9.75,6.06,9.75,6.06,22.19-7.33,33.7-.99c-2.17-1.91-4.78-5.6094-2.2-11.26,4-8.75,15.5-6.25,15.5-6.25s-7.25-14.75,0-19.75,16.25,5,16.25,5a17.2632,17.2632,0,0,1,2.5-18.5c7.5-9,20.17-5.5,25.58,2.75,5.3095,8.08.22,16.88.01,17.24.39-.15,23.7-9.67,27.91,6.85,2.34,9.17.59,13.0606-1.45,14.72,5.8506-1.71,17.5-3.85,23.7,3.44,6.62,7.79,4.37,11.18,3.05,12.3a20.518,20.518,0,0,1,14.45-2.55c8.75,1.75,5.62,6.85,5.62,6.85s18.18-5.75,24.3994-4.8193A3.6313,3.6313,0,0,1,230.9492,115.63Z" fill="#d2e5f9" opacity="0.29"/><path d="M217.8193,120.26a11.7986,11.7986,0,0,1-6.39-2.52,17.8036,17.8036,0,0,1-7.16,1.8008c-1.22,3.96-5.68,6.8994-11.01,6.8994-5.15,0-9.5-2.75-10.88-6.52q-1.86.4043-3.81.6894c-14.2295,2.04-26.87-1.6894-31.1094-8.54a45.7556,45.7556,0,0,1-34.02,14.61,46.6933,46.6933,0,0,1-26.83-8.3,7.2742,7.2742,0,0,1-3.97,1.2,7.731,7.731,0,0,1-7.54-7.9,8.1607,8.1607,0,0,1,.74-3.4,14.59,14.59,0,0,1-3.45-.54c-1.22,1.7305-9.45,3.08-19.43,3.08-2.69,0-5.25-.1-7.58-.2695-1.29-2.97-1.61-6.85.59-11.68,6.01-13.1309,23.26-9.3809,23.26-9.3809s-10.88-22.13,0-29.64c10.68-7.36,23.88,6.95,24.38,7.5a25.94,25.94,0,0,1,3.76-27.76c11.2607-13.51,30.28-8.25,38.3906,4.13,7.97,12.13.33,25.33.0195,25.87.5206-.2,28.59-11.66,39.0108,3.7a19.5254,19.5254,0,0,1,2.47,5.17c.1494.46.29.93.41,1.41,3.51,13.77.88,19.6-2.1807,22.09,8.78-2.5605,26.2608-5.77,35.57,5.17C216.1093,113.0693,217.72,117.31,217.8193,120.26Z" fill="#d2e5f9" opacity="0.29"/><path d="M358.9794,100.8994c-1.35,5.63-8,9.92-16.0195,9.92a19.7148,19.7148,0,0,1-10.9307-3.14,49.1921,49.1921,0,0,1-13.8193,1.95,50.8255,50.8255,0,0,1-9.52-.9,10.2414,10.2414,0,0,1-9.26,5.3506c-5.58,0-10.11-4-10.11-8.94,0-.0595.0107-.12.0107-.1894a48.957,48.957,0,0,1-7.91,1.17,3.0908,3.0908,0,0,1,.1093.7392c0,4.16-8.34,7.63-19.5195,8.54-2.01,1.8105-8.04,3.12-15.17,3.12-8.78,0-15.8906-1.99-15.8906-4.4394,0,0,14.3808,7.39,23.16-2.11,0,0,6.84,5.5,16.8106-6.5,0,0-7.4307-6.47,6.5195-12.2305,10.07-4.1591,12.27,1.1905,12.71,4.49.32-2.88,2.44-7.5694,12.74-8.26a21.9519,21.9519,0,0,1,21,11.5s3-3,13.5-5S354.0693,93.33,358.9794,100.8994Z" fill="#d2e5f9" opacity="0.29"/><path d="M44.7226,63.34s3.334-4.8916,16.167-2.7969,14.5,18.5938,14.5,18.5938S68.5566,56.5429,44.7226,63.34Z" fill="#d2e5f9"/><path d="M61.39,80.83s11-3.35,14.667,1.9785S78.86,89.4131,78.86,89.4131,74.0566,78.5234,61.39,80.83Z" fill="#d2e5f9"/><path d="M148.7226,102.47s1.334,10.1533-16,15.66-24,4.34-24,4.34S140.0566,120.8027,148.7226,102.47Z" fill="#d2e5f9"/><path d="M330.64,63.34s6.25-2.37,11,4.38-15.75,22.1592-21.75,20.9551C319.89,88.6748,357.14,70.46,330.64,63.34Z" fill="#adcff7"/><path d="M346.64,75.8388s5,.5577,6.75,6.97-18.25,6.6045-18.25,6.6045S360.14,84.458,346.64,75.8388Z" fill="#adcff7"/><ellipse cx="226.0566" cy="68.9617" rx="40.5" ry="2.0083" fill="#fff"/><ellipse cx="246.8896" cy="63.748" rx="33.667" ry="3.2051" fill="#fff"/><ellipse cx="267.3896" cy="57.5898" rx="18.5" ry="2.9531" fill="#fff"/><ellipse cx="60.0564" cy="40.8879" rx="32.1665" ry="2.2515" fill="#fff"/><ellipse cx="72.3064" cy="35.8029" rx="27.5835" ry="2.8335" fill="#fff"/><ellipse cx="80.875" cy="30.4045" rx="13.9853" ry="3.7681" fill="#fff"/><ellipse cx="385.5566" cy="94.3027" rx="20" ry="1" fill="#fff"/><ellipse cx="380.3064" cy="97.8029" rx="16.9165" ry="0.8335" fill="#fff"/><ellipse cx="374.9729" cy="96.1569" rx="10.5835" ry="0.854" fill="#fff"/><ellipse cx="373.1396" cy="100.4697" rx="9.75" ry="1.167" fill="#fff"/></svg>